<svg width="200" height="200" viewBox="0 0 200 200" fill="none" xmlns="http://www.w3.org/2000/svg">
<rect width="200" height="200" rx="40" fill="#F27AC2"/>
<path d="M68.5271 106.641L57.9112 74.1735C56.6084 70.189 52.8914 67.4937 48.6993 67.4937C42.0882 67.4937 37.4175 73.9669 39.5016 80.2409L68.7045 168.152C70.0626 172.241 73.8865 175 78.1946 175H79.3695C83.8638 175 87.8061 172.002 89.0063 167.671L125.181 37.1356C126.733 31.5368 122.522 26 116.712 26C112.767 26 109.306 28.628 108.246 32.4274L87.6643 106.22C85.0061 115.75 71.602 116.045 68.5271 106.641Z" fill="#FFFEED"/>
<path d="M119.578 120.829C117.038 129.995 127.921 136.894 135.127 130.687L158.341 110.689C163.35 106.375 162.664 98.4218 156.99 95.0286C153.393 92.8769 148.819 93.2822 145.656 96.0332L122.536 116.14C121.111 117.379 120.083 119.01 119.578 120.829V120.829Z" fill="#FFFEED"/>
<path d="M96.3637 137.986C96.3865 137.967 96.4193 137.99 96.4093 138.018C96.346 138.193 96.2789 138.364 96.2082 138.532L96.3542 138.001C96.3558 137.995 96.3591 137.99 96.3637 137.986V137.986Z" fill="#FFFEED"/>
</svg>
